<svg width="284" height="363" viewBox="0 0 284 363" fill="none" xmlns="http://www.w3.org/2000/svg">
<circle cx="31.8995" cy="132.936" r="7" transform="rotate(-45 31.8995 132.936)" fill="#FF5454"/>
<circle cx="51.6985" cy="152.735" r="7" transform="rotate(-45 51.6985 152.735)" fill="#FF5454"/>
<circle cx="71.4975" cy="172.534" r="7" transform="rotate(-45 71.4975 172.534)" fill="#FF5454"/>
<circle cx="91.2965" cy="192.333" r="7" transform="rotate(-45 91.2965 192.333)" fill="#FF5454"/>
<circle cx="111.095" cy="212.132" r="7" transform="rotate(-45 111.095 212.132)" fill="#FF5454"/>
<circle cx="130.894" cy="231.931" r="7" transform="rotate(-45 130.894 231.931)" fill="#FF5454"/>
<circle cx="150.693" cy="251.73" r="7" transform="rotate(-45 150.693 251.73)" fill="#FF5454"/>
<circle cx="52.4056" cy="112.43" r="7" transform="rotate(-45 52.4056 112.43)" fill="#FF5454"/>
<circle cx="72.2046" cy="132.229" r="7" transform="rotate(-45 72.2046 132.229)" fill="#FF5454"/>
<circle cx="92.0036" cy="152.028" r="7" transform="rotate(-45 92.0036 152.028)" fill="#FF5454"/>
<circle cx="111.803" cy="171.827" r="7" transform="rotate(-45 111.803 171.827)" fill="#FF5454"/>
<circle cx="131.602" cy="191.626" r="7" transform="rotate(-45 131.602 191.626)" fill="#FF5454"/>
<circle cx="151.401" cy="211.425" r="7" transform="rotate(-45 151.401 211.425)" fill="#FF5454"/>
<circle cx="171.2" cy="231.224" r="7" transform="rotate(-45 171.2 231.224)" fill="#FF5454"/>
<circle cx="72.9117" cy="91.9238" r="7" transform="rotate(-45 72.9117 91.9238)" fill="#FF5454"/>
<circle cx="92.7107" cy="111.723" r="7" transform="rotate(-45 92.7107 111.723)" fill="#FF5454"/>
<circle cx="112.51" cy="131.522" r="7" transform="rotate(-45 112.51 131.522)" fill="#FF5454"/>
<circle cx="132.309" cy="151.321" r="7" transform="rotate(-45 132.309 151.321)" fill="#FF5454"/>
<circle cx="152.108" cy="171.12" r="7" transform="rotate(-45 152.108 171.12)" fill="#FF5454"/>
<circle cx="171.907" cy="190.919" r="7" transform="rotate(-45 171.907 190.919)" fill="#FF5454"/>
<circle cx="191.706" cy="210.718" r="7" transform="rotate(-45 191.706 210.718)" fill="#FF5454"/>
<circle cx="93.4178" cy="71.4177" r="7" transform="rotate(-45 93.4178 71.4177)" fill="#FF5454"/>
<circle cx="113.217" cy="91.2167" r="7" transform="rotate(-45 113.217 91.2167)" fill="#FF5454"/>
<circle cx="133.016" cy="111.016" r="7" transform="rotate(-45 133.016 111.016)" fill="#FF5454"/>
<circle cx="152.815" cy="130.815" r="7" transform="rotate(-45 152.815 130.815)" fill="#FF5454"/>
<circle cx="172.614" cy="150.614" r="7" transform="rotate(-45 172.614 150.614)" fill="#FF5454"/>
<circle cx="192.413" cy="170.413" r="7" transform="rotate(-45 192.413 170.413)" fill="#FF5454"/>
<circle cx="212.212" cy="190.212" r="7" transform="rotate(-45 212.212 190.212)" fill="#FF5454"/>
<circle cx="113.924" cy="50.9116" r="7" transform="rotate(-45 113.924 50.9116)" fill="#FF5454"/>
<circle cx="133.723" cy="70.7107" r="7" transform="rotate(-45 133.723 70.7107)" fill="#FF5454"/>
<circle cx="153.522" cy="90.5096" r="7" transform="rotate(-45 153.522 90.5096)" fill="#FF5454"/>
<circle cx="173.321" cy="110.309" r="7" transform="rotate(-45 173.321 110.309)" fill="#FF5454"/>
<circle cx="193.12" cy="130.108" r="7" transform="rotate(-45 193.12 130.108)" fill="#FF5454"/>
<circle cx="212.919" cy="149.907" r="7" transform="rotate(-45 212.919 149.907)" fill="#FF5454"/>
<circle cx="232.718" cy="169.706" r="7" transform="rotate(-45 232.718 169.706)" fill="#FF5454"/>
<circle cx="134.43" cy="30.4055" r="7" transform="rotate(-45 134.43 30.4055)" fill="#FF5454"/>
<circle cx="154.229" cy="50.2046" r="7" transform="rotate(-45 154.229 50.2046)" fill="#FF5454"/>
<circle cx="174.028" cy="70.0035" r="7" transform="rotate(-45 174.028 70.0035)" fill="#FF5454"/>
<circle cx="193.827" cy="89.8025" r="7" transform="rotate(-45 193.827 89.8025)" fill="#FF5454"/>
<circle cx="213.626" cy="109.602" r="7" transform="rotate(-45 213.626 109.602)" fill="#FF5454"/>
<circle cx="233.425" cy="129.401" r="7" transform="rotate(-45 233.425 129.401)" fill="#FF5454"/>
<circle cx="253.224" cy="149.199" r="7" transform="rotate(-45 253.224 149.199)" fill="#FF5454"/>
<circle cx="154.936" cy="9.89941" r="7" transform="rotate(-45 154.936 9.89941)" fill="#FF5454"/>
<circle cx="174.735" cy="29.6985" r="7" transform="rotate(-45 174.735 29.6985)" fill="#FF5454"/>
<circle cx="194.534" cy="49.4974" r="7" transform="rotate(-45 194.534 49.4974)" fill="#FF5454"/>
<circle cx="214.333" cy="69.2964" r="7" transform="rotate(-45 214.333 69.2964)" fill="#FF5454"/>
<circle cx="234.132" cy="89.0955" r="7" transform="rotate(-45 234.132 89.0955)" fill="#FF5454"/>
<circle cx="253.931" cy="108.894" r="7" transform="rotate(-45 253.931 108.894)" fill="#FF5454"/>
<circle cx="273.73" cy="128.693" r="7" transform="rotate(-45 273.73 128.693)" fill="#FF5454"/>
<circle cx="9.8995" cy="233.936" r="7" transform="rotate(-45 9.8995 233.936)" fill="white"/>
<circle cx="29.6985" cy="253.735" r="7" transform="rotate(-45 29.6985 253.735)" fill="white"/>
<circle cx="49.4975" cy="273.534" r="7" transform="rotate(-45 49.4975 273.534)" fill="white"/>
<circle cx="69.2965" cy="293.333" r="7" transform="rotate(-45 69.2965 293.333)" fill="white"/>
<circle cx="89.0955" cy="313.132" r="7" transform="rotate(-45 89.0955 313.132)" fill="white"/>
<circle cx="108.894" cy="332.931" r="7" transform="rotate(-45 108.894 332.931)" fill="white"/>
<circle cx="128.693" cy="352.73" r="7" transform="rotate(-45 128.693 352.73)" fill="white"/>
<circle cx="30.4056" cy="213.43" r="7" transform="rotate(-45 30.4056 213.43)" fill="white"/>
<circle cx="50.2046" cy="233.229" r="7" transform="rotate(-45 50.2046 233.229)" fill="white"/>
<circle cx="70.0036" cy="253.028" r="7" transform="rotate(-45 70.0036 253.028)" fill="white"/>
<circle cx="89.8026" cy="272.827" r="7" transform="rotate(-45 89.8026 272.827)" fill="white"/>
<circle cx="109.602" cy="292.626" r="7" transform="rotate(-45 109.602 292.626)" fill="white"/>
<circle cx="129.401" cy="312.425" r="7" transform="rotate(-45 129.401 312.425)" fill="white"/>
<circle cx="149.2" cy="332.224" r="7" transform="rotate(-45 149.2 332.224)" fill="white"/>
<circle cx="50.9117" cy="192.924" r="7" transform="rotate(-45 50.9117 192.924)" fill="white"/>
<circle cx="70.7107" cy="212.723" r="7" transform="rotate(-45 70.7107 212.723)" fill="white"/>
<circle cx="90.5097" cy="232.522" r="7" transform="rotate(-45 90.5097 232.522)" fill="white"/>
<circle cx="110.309" cy="252.321" r="7" transform="rotate(-45 110.309 252.321)" fill="white"/>
<circle cx="130.108" cy="272.12" r="7" transform="rotate(-45 130.108 272.12)" fill="white"/>
<circle cx="149.907" cy="291.919" r="7" transform="rotate(-45 149.907 291.919)" fill="white"/>
<circle cx="169.706" cy="311.718" r="7" transform="rotate(-45 169.706 311.718)" fill="white"/>
<circle cx="71.4178" cy="172.418" r="7" transform="rotate(-45 71.4178 172.418)" fill="white"/>
<circle cx="91.2168" cy="192.217" r="7" transform="rotate(-45 91.2168 192.217)" fill="white"/>
<circle cx="111.016" cy="212.016" r="7" transform="rotate(-45 111.016 212.016)" fill="white"/>
<circle cx="130.815" cy="231.815" r="7" transform="rotate(-45 130.815 231.815)" fill="white"/>
<circle cx="150.614" cy="251.614" r="7" transform="rotate(-45 150.614 251.614)" fill="white"/>
<circle cx="170.413" cy="271.413" r="7" transform="rotate(-45 170.413 271.413)" fill="white"/>
<circle cx="190.212" cy="291.212" r="7" transform="rotate(-45 190.212 291.212)" fill="white"/>
<circle cx="91.9239" cy="151.912" r="7" transform="rotate(-45 91.9239 151.912)" fill="white"/>
<circle cx="111.723" cy="171.711" r="7" transform="rotate(-45 111.723 171.711)" fill="white"/>
<circle cx="131.522" cy="191.51" r="7" transform="rotate(-45 131.522 191.51)" fill="white"/>
<circle cx="151.321" cy="211.309" r="7" transform="rotate(-45 151.321 211.309)" fill="white"/>
<circle cx="171.12" cy="231.108" r="7" transform="rotate(-45 171.12 231.108)" fill="white"/>
<circle cx="190.919" cy="250.907" r="7" transform="rotate(-45 190.919 250.907)" fill="white"/>
<circle cx="210.718" cy="270.706" r="7" transform="rotate(-45 210.718 270.706)" fill="white"/>
<circle cx="112.43" cy="131.406" r="7" transform="rotate(-45 112.43 131.406)" fill="white"/>
<circle cx="132.229" cy="151.205" r="7" transform="rotate(-45 132.229 151.205)" fill="white"/>
<circle cx="152.028" cy="171.004" r="7" transform="rotate(-45 152.028 171.004)" fill="white"/>
<circle cx="171.827" cy="190.803" r="7" transform="rotate(-45 171.827 190.803)" fill="white"/>
<circle cx="191.626" cy="210.602" r="7" transform="rotate(-45 191.626 210.602)" fill="white"/>
<circle cx="211.425" cy="230.401" r="7" transform="rotate(-45 211.425 230.401)" fill="white"/>
<circle cx="231.224" cy="250.199" r="7" transform="rotate(-45 231.224 250.199)" fill="white"/>
<circle cx="132.936" cy="110.899" r="7" transform="rotate(-45 132.936 110.899)" fill="white"/>
<circle cx="152.735" cy="130.698" r="7" transform="rotate(-45 152.735 130.698)" fill="white"/>
<circle cx="172.534" cy="150.497" r="7" transform="rotate(-45 172.534 150.497)" fill="white"/>
<circle cx="192.333" cy="170.296" r="7" transform="rotate(-45 192.333 170.296)" fill="white"/>
<circle cx="212.132" cy="190.095" r="7" transform="rotate(-45 212.132 190.095)" fill="white"/>
<circle cx="231.931" cy="209.894" r="7" transform="rotate(-45 231.931 209.894)" fill="white"/>
<circle cx="251.73" cy="229.693" r="7" transform="rotate(-45 251.73 229.693)" fill="white"/>
</svg>
